<?xml version="1.0" standalone="no"?>
<!DOCTYPE svg PUBLIC "-//W3C//DTD SVG 20010904//EN"
 "http://www.w3.org/TR/2001/REC-SVG-20010904/DTD/svg10.dtd">
<svg version="1.0" xmlns="http://www.w3.org/2000/svg"
 width="400.000000pt" height="400.000000pt" viewBox="0 0 400.000000 400.000000"
 preserveAspectRatio="xMidYMid meet">

<g transform="translate(0.000000,400.000000) scale(0.100000,-0.100000)"
fill="#00897B" stroke="none">
<path d="M1458 3000 c-393 -83 -693 -368 -800 -760 -20 -73 -23 -108 -23 -245
1 -121 5 -176 18 -225 105 -385 361 -650 742 -767 l90 -28 640 -3 c720 -3 721
-3 863 68 148 75 250 180 319 328 156 334 14 727 -322 892 -103 51 -179 70
-280 70 l-81 0 -24 58 c-180 444 -677 710 -1142 612z m426 -344 c146 -50 273
-149 356 -277 33 -51 120 -251 120 -275 0 -17 53 -75 83 -91 26 -13 62 -17
192 -17 157 -1 161 -2 219 -31 66 -33 129 -99 159 -165 31 -70 35 -199 7 -272
-41 -110 -144 -194 -265 -218 -42 -8 -229 -10 -635 -8 l-575 3 -94 33 c-52 18
-122 49 -155 69 -137 83 -250 224 -301 377 -35 105 -44 259 -21 366 48 225
222 428 433 501 92 33 130 38 268 35 112 -2 141 -6 209 -30z"/>
</g>
</svg>
